#!OML:ASF X:\für Bonn\!DataBase\2005_08_11_Bastian_Final\c3d\Bastian.ASF
:FULLY-SPECIFIED
:DEGREES
99
root -1.49678 11.5176 2.20767 166.096 -5.85744 -171.965
lowerback 31.4105 -0.769941 4.52406
upperback 7.19675 -1.33042 1.99212
thorax -9.03069 -1.53611 0.275451
lowerneck -13.0089 -5.24313 -2.28312
upperneck -9.82423 -7.91946 11.653
head -0.319954 -4.57328 3.90108
rclavicle -3.97569e-016 5.1684e-015
rhumerus 69.4067 11.0327 17.1678
rradius 40.2358
rwrist -69.5765
rhand -50.3671 -8.17773
rfingers 7.12502
rthumb -22.9414 -36.8328
lclavicle -3.97569e-016 5.1684e-015
lhumerus 75.0877 -17.6295 -41.4644
lradius 32.5805
lwrist 37.338
lhand -48.0897 24.7705
lfingers 7.12502
lthumb -20.7546 53.6806
rfemur -40.8038 -2.4424 32.3798
rtibia 113.007
rfoot -43.7646 -16.7474
rtoes -8.16458
lfemur -42.2067 2.9853 -11.4593
ltibia 116.884
lfoot -44.0073 -10.8757
ltoes -10.7676
100
root -1.50174 11.7406 2.20722 166.428 -5.91904 -171.984
lowerback 31.0879 -0.784132 4.4444
upperback 7.10848 -1.34318 1.98193
thorax -8.98053 -1.52122 0.304228
lowerneck -13.2637 -5.26216 -2.21767
upperneck -9.59634 -7.96128 11.5426
head -0.207581 -4.57582 3.83286
rclavicle 1.49089e-015 9.14409e-015
rhumerus 69.4217 11.0933 16.9061
rradius 40.1371
rwrist -69.2774
rhand -50.3392 -8.16274
rfingers 7.12502
rthumb -22.9147 -36.8211
lclavicle 1.49089e-015 9.14409e-015
lhumerus 75.0671 -17.5457 -41.4869
lradius 32.6104
lwrist 37.0124
lhand -47.9124 24.7281
lfingers 7.12502
lthumb -20.5843 53.6567
rfemur -39.9815 -2.28115 32.1875
rtibia 110.822
rfoot -43.4971 -16.3544
rtoes -7.626
lfemur -41.4295 2.69118 -11.5592
ltibia 114.629
lfoot -43.4061 -10.8884
ltoes -9.88593
101
root -1.5066 11.9655 2.20635 166.788 -5.9867 -172.023
lowerback 30.7275 -0.80249 4.35696
upperback 7.01148 -1.36134 1.96441
thorax -8.92184 -1.50686 0.329905
lowerneck -13.5227 -5.28791 -2.1116
upperneck -9.34587 -8.01478 11.3551
head -0.0923761 -4.58238 3.7292
rclavicle 6.95746e-016 3.57812e-015
rhumerus 69.4394 11.1372 17.0034
rradius 40.1748
rwrist -69.3311
rhand -50.3941 -8.14679
rfingers 7.12502
rthumb -22.9673 -36.7986
lclavicle 6.95746e-016 3.57812e-015
lhumerus 75.0411 -17.4748 -41.464
lradius 32.6319
lwrist 36.6723
lhand -47.7495 24.654
lfingers 7.12502
lthumb -20.4277 53.5995
rfemur -39.1671 -2.12259 31.9828
rtibia 108.589
rfoot -43.1575 -16.0196
rtoes -7.17989
lfemur -40.6637 2.43795 -11.6802
ltibia 112.325
lfoot -42.7788 -10.8696
ltoes -9.19837
102
root -1.51181 12.1922 2.20516 167.147 -6.05692 -172.086
lowerback 30.3332 -0.817701 4.25441
upperback 6.92439 -1.38311 1.94867
thorax -8.83426 -1.4942 0.366046
lowerneck -13.7199 -5.31303 -2.10532
upperneck -9.11579 -8.04921 11.2456
head 0.0128835 -4.5784 3.67553
rclavicle 1.16289e-014 -1.66979e-014
rhumerus 69.4938 11.2097 17.272
rradius 40.2574
rwrist -69.5712
rhand -50.5562 -8.02388
rfingers 7.12502
rthumb -23.1229 -36.6563
lclavicle 1.16289e-014 -1.66979e-014
lhumerus 75.0081 -17.4119 -41.3743
lradius 32.6541
lwrist 36.338
lhand -47.5965 24.5596
lfingers 7.12502
lthumb -20.2806 53.5208
rfemur -38.3314 -2.0001 31.7424
rtibia 106.328
rfoot -42.7781 -15.6117
rtoes -6.69384
lfemur -39.8384 2.20441 -11.8138
ltibia 109.954
lfoot -42.0862 -10.94
ltoes -8.23983
103
root -1.51645 12.419 2.20333 167.505 -6.12539 -172.145
lowerback 29.9154 -0.837752 4.16584
upperback 6.8416 -1.40929 1.91163
thorax -8.72998 -1.48364 0.370583
lowerneck -13.8779 -5.32551 -2.09871
upperneck -8.92023 -8.06884 11.2143
head 0.103349 -4.57173 3.65235
rclavicle 9.24349e-015 4.77083e-015
rhumerus 69.5387 11.3467 17.3554
rradius 40.3083
rwrist -69.6727
rhand -50.6512 -7.9566
rfingers 7.12502
rthumb -23.214 -36.5775
lclavicle 9.24349e-015 4.77083e-015
lhumerus 74.958 -17.3535 -41.1226
lradius 32.6325
lwrist 35.86
lhand -47.4648 24.4736
lfingers 7.12502
lthumb -20.154 53.4482
rfemur -37.4994 -1.89768 31.5157
rtibia 104.04
rfoot -42.3266 -15.3019
rtoes -6.60157
lfemur -38.9947 2.01042 -11.9272
ltibia 107.533
lfoot -41.3253 -11.0818
ltoes -6.94546
104
root -1.52193 12.6462 2.20159 167.87 -6.18421 -172.231
lowerback 29.4869 -0.852327 4.05156
upperback 6.75429 -1.43449 1.88092
thorax -8.62401 -1.47195 0.396371
lowerneck -13.9995 -5.33408 -2.12267
upperneck -8.72286 -8.07414 11.1738
head 0.188351 -4.55608 3.63389
rclavicle -2.6339e-014 -1.11319e-014
rhumerus 69.617 11.5242 17.2574
rradius 40.2927
rwrist -69.6059
rhand -50.6971 -7.87774
rfingers 7.12502
rthumb -23.258 -36.4931
lclavicle -2.6339e-014 -1.11319e-014
lhumerus 74.9027 -17.3131 -40.7002
lradius 32.546
lwrist 35.3055
lhand -47.3332 24.3513
lfingers 7.12502
lthumb -20.0276 53.3391
rfemur -36.6595 -1.80415 31.2542
rtibia 101.724
rfoot -41.7978 -14.942
rtoes -6.33832
lfemur -38.1116 1.85685 -12.0726
ltibia 105.053
lfoot -40.5897 -11.1366
ltoes -5.94137
105
root -1.52662 12.8749 2.19913 168.282 -6.24059 -172.271
lowerback 29.003 -0.87264 3.98338
upperback 6.65918 -1.4515 1.84493
thorax -8.49884 -1.45548 0.384841
lowerneck -14.1349 -5.33677 -2.08637
upperneck -8.52483 -8.08301 11.1289
head 0.27311 -4.54471 3.60231
rclavicle -2.68359e-014 -3.97569e-015
rhumerus 69.6617 11.7205 16.9231
rradius 40.2129
rwrist -69.4266
rhand -50.6562 -7.80128
rfingers 7.12502
rthumb -23.2188 -36.4216
lclavicle -2.68359e-014 -3.97569e-015
lhumerus 74.8765 -17.2836 -40.2122
lradius 32.4452
lwrist 34.6925
lhand -47.248 24.2817
lfingers 7.12502
lthumb -19.9457 53.2781
rfemur -35.8448 -1.70029 31.0527
rtibia 99.354
rfoot -41.2266 -14.5918
rtoes -6.19815
lfemur -37.243 1.70974 -12.1501
ltibia 102.5
lfoot -39.7924 -11.2785
ltoes -4.62516
106
root -1.53148 13.1052 2.19629 168.757 -6.32523 -172.33
lowerback 28.4699 -0.901721 3.87901
upperback 6.53858 -1.48199 1.82513
thorax -8.3766 -1.44172 0.415762
lowerneck -14.2244 -5.34591 -2.13187
upperneck -8.34113 -8.08473 11.1193
head 0.350852 -4.5281 3.60048
rclavicle -2.83268e-014 1.11319e-014
rhumerus 69.7361 11.9466 16.5272
rradius 40.1187
rwrist -69.2339
rhand -50.5472 -7.64777
rfingers 7.12502
rthumb -23.1143 -36.2813
lclavicle -2.83268e-014 1.11319e-014
lhumerus 74.843 -17.3106 -39.7424
lradius 32.3899
lwrist 34.1858
lhand -47.2644 24.2608
lfingers 7.12502
lthumb -19.9615 53.2556
rfemur -35.0822 -1.64463 30.8284
rtibia 96.9525
rfoot -40.5836 -14.2616
rtoes -6.16531
lfemur -36.4464 1.56437 -12.2528
ltibia 99.9185
lfoot -38.9737 -11.4165
ltoes -3.37414
107
root -1.53662 13.3356 2.19262 169.278 -6.38869 -172.419
lowerback 27.8802 -0.925233 3.75906
upperback 6.41297 -1.50987 1.77687
thorax -8.2307 -1.42475 0.42072
lowerneck -14.3356 -5.34041 -2.13786
upperneck -8.12559 -8.0748 11.1165
head 0.440635 -4.50491 3.59344
rclavicle 1.96797e-014 -3.37934e-014
rhumerus 69.8168 12.2313 16.0257
rradius 40.0178
rwrist -69.0395
rhand -50.4756 -7.46127
rfingers 7.12502
rthumb -23.0455 -36.1034
lclavicle 1.96797e-014 -3.37934e-014
lhumerus 74.8514 -17.3348 -39.3155
lradius 32.334
lwrist 33.7574
lhand -47.2738 24.3229
lfingers 7.12502
lthumb -19.9704 53.3168
rfemur -34.3595 -1.61753 30.5698
rtibia 94.5301
rfoot -39.8568 -13.9374
rtoes -6.18824
lfemur -35.6695 1.47818 -12.3892
ltibia 97.3028
lfoot -38.1573 -11.4392
ltoes -2.4426
108
root -1.54151 13.5629 2.1895 169.773 -6.45022 -172.461
lowerback 27.3205 -0.957741 3.66814
upperback 6.28457 -1.53982 1.76291
thorax -8.09968 -1.41133 0.44918
lowerneck -14.4228 -5.34067 -2.20101
upperneck -7.92761 -8.06226 11.1299
head 0.524117 -4.47993 3.60406
rclavicle -2.85256e-014 2.8625e-014
rhumerus 69.9083 12.5519 15.3011
rradius 39.856
rwrist -68.6205
rhand -50.3263 -7.25857
rfingers 7.12502
rthumb -22.9022 -35.9185
lclavicle -2.85256e-014 2.8625e-014
lhumerus 74.8435 -17.3837 -38.9384
lradius 32.327
lwrist 33.4149
lhand -47.32 24.4505
lfingers 7.12502
lthumb -20.0149 53.4397
rfemur -33.6041 -1.64096 30.3615
rtibia 92.083
rfoot -39.081 -13.6091
rtoes -6.34975
lfemur -34.8641 1.3962 -12.4545
ltibia 94.6666
lfoot -37.2811 -11.537
ltoes -1.22835
109
root -1.54657 13.7856 2.18536 170.264 -6.5166 -172.543
lowerback 26.746 -0.98919 3.53729
upperback 6.16406 -1.58264 1.72393
thorax -7.95067 -1.40375 0.475991
lowerneck -14.505 -5.31331 -2.18353
upperneck -7.74425 -8.0276 11.125
head 0.595616 -4.44829 3.5956
rclavicle 2.78299e-015 -1.31198e-014
rhumerus 69.9988 12.9223 14.2875
rradius 39.5844
rwrist -67.9336
rhand -50.1523 -7.03942
rfingers 7.12502
rthumb -22.7353 -35.7199
lclavicle 2.78299e-015 -1.31198e-014
lhumerus 74.837 -17.4117 -38.5482
lradius 32.2895
lwrist 33.0567
lhand -47.2902 24.5555
lfingers 7.12502
lthumb -19.9862 53.5477
rfemur -32.8476 -1.70663 30.103
rtibia 89.6431
rfoot -38.2781 -13.1989
rtoes -6.42958
lfemur -34.0422 1.3195 -12.5645
ltibia 92.0166
lfoot -36.442 -11.5687
ltoes -0.31093
110
root -1.55089 14.0066 2.18056 170.651 -6.55771 -172.655
lowerback 26.2653 -1.00205 3.38981
upperback 6.07031 -1.61328 1.67952
thorax -7.81612 -1.39522 0.505075
lowerneck -14.5998 -5.30981 -2.22347
upperneck -7.52977 -8.01463 11.1402
head 0.685115 -4.42279 3.6026
rclavicle 5.26779e-015 -8.74653e-015
rhumerus 70.0551 13.3318 13.1126
rradius 39.2757
rwrist -67.0691
rhand -49.9653 -6.89838
rfingers 7.12502
rthumb -22.5558 -35.6008
lclavicle 5.26779e-015 -8.74653e-015
lhumerus 74.8294 -17.4318 -37.9526
lradius 32.1803
lwrist 32.5179
lhand -47.2 24.6403
lfingers 7.12502
lthumb -19.8996 53.6415
rfemur -31.9493 -1.77195 29.8042
rtibia 87.1907
rfoot -37.4839 -12.6341
rtoes -6.23391
lfemur -33.0562 1.2831 -12.6976
ltibia 89.3311
lfoot -35.6047 -11.5419
ltoes 0.329991
111
root -1.55526 14.2248 2.17491 170.994 -6.59496 -172.769
lowerback 25.8207 -1.02525 3.22793
upperback 5.96944 -1.65888 1.6403
thorax -7.70587 -1.39452 0.554337
lowerneck -14.6012 -5.28955 -2.28671
upperneck -7.34704 -7.97124 11.1819
head 0.748928 -4.38419 3.62861
rclavicle 2.34566e-014 -2.18663e-014
rhumerus 70.1576 13.8077 12.1387
rradius 39.0406
rwrist -66.3311
rhand -49.8722 -6.67797
rfingers 7.12502
rthumb -22.4664 -35.3912
lclavicle 2.34566e-014 -2.18663e-014
lhumerus 74.7725 -17.5365 -37.1024
lradius 32.0004
lwrist 31.7445
lhand -47.0319 24.6156
lfingers 7.12502
lthumb -19.738 53.6335
rfemur -30.9995 -1.89373 29.5016
rtibia 84.7429
rfoot -36.7017 -12.033
rtoes -6.03329
lfemur -32.0093 1.27565 -12.8256
ltibia 86.6346
lfoot -34.7728 -11.5037
ltoes 0.814439
